<?xml version="1.0" encoding="UTF-8" ?>
<svg version="1.1" width="1280" height="1280" xmlns="http://www.w3.org/2000/svg" shape-rendering="crispEdges">
<rect x="192" y="320" width="128" height="64" fill="#000000" />
<rect x="448" y="320" width="384" height="64" fill="#000000" />
<rect x="960" y="320" width="128" height="64" fill="#000000" />
<rect x="128" y="384" width="64" height="64" fill="#000000" />
<rect x="192" y="384" width="64" height="64" fill="#FFAA6E" />
<rect x="256" y="384" width="64" height="64" fill="#FFE091" />
<rect x="320" y="384" width="128" height="64" fill="#000000" />
<rect x="448" y="384" width="256" height="128" fill="#FFE091" />
<rect x="704" y="384" width="64" height="128" fill="#000000" />
<rect x="768" y="384" width="64" height="448" fill="#FFE091" />
<rect x="832" y="384" width="128" height="64" fill="#000000" />
<rect x="960" y="384" width="128" height="64" fill="#FFE091" />
<rect x="1088" y="384" width="64" height="64" fill="#000000" />
<rect x="192" y="448" width="64" height="64" fill="#000000" />
<rect x="256" y="448" width="64" height="64" fill="#FFAA6E" />
<rect x="320" y="448" width="128" height="128" fill="#FFE091" />
<rect x="832" y="448" width="192" height="64" fill="#FFE091" />
<rect x="1024" y="448" width="64" height="64" fill="#000000" />
<rect x="256" y="512" width="64" height="128" fill="#000000" />
<rect x="448" y="512" width="192" height="64" fill="#FFE091" />
<rect x="640" y="512" width="64" height="64" fill="#000000" />
<rect x="704" y="512" width="64" height="384" fill="#FFE091" />
<rect x="832" y="512" width="128" height="64" fill="#FFE091" />
<rect x="960" y="512" width="64" height="128" fill="#000000" />
<rect x="320" y="576" width="64" height="64" fill="#000000" />
<rect x="384" y="576" width="128" height="64" fill="#FFE091" />
<rect x="512" y="576" width="128" height="192" fill="#000000" />
<rect x="640" y="576" width="64" height="320" fill="#FFE091" />
<rect x="832" y="576" width="64" height="192" fill="#000000" />
<rect x="896" y="576" width="64" height="192" fill="#FFE091" />
<rect x="192" y="640" width="64" height="64" fill="#000000" />
<rect x="256" y="640" width="128" height="64" fill="#FFE091" />
<rect x="384" y="640" width="128" height="64" fill="#000000" />
<rect x="960" y="640" width="64" height="64" fill="#FFE091" />
<rect x="1024" y="640" width="64" height="64" fill="#000000" />
<rect x="128" y="704" width="64" height="64" fill="#000000" />
<rect x="192" y="704" width="64" height="128" fill="#FFE091" />
<rect x="256" y="704" width="128" height="64" fill="#FFAA6E" />
<rect x="384" y="704" width="128" height="128" fill="#FFE091" />
<rect x="960" y="704" width="64" height="64" fill="#FFAA6E" />
<rect x="1024" y="704" width="64" height="64" fill="#FFE091" />
<rect x="1088" y="704" width="64" height="64" fill="#000000" />
<rect x="64" y="768" width="64" height="128" fill="#000000" />
<rect x="128" y="768" width="64" height="128" fill="#FFAA6E" />
<rect x="256" y="768" width="64" height="128" fill="#000000" />
<rect x="320" y="768" width="64" height="128" fill="#FFAA6E" />
<rect x="512" y="768" width="128" height="128" fill="#FFE091" />
<rect x="832" y="768" width="64" height="64" fill="#FFE091" />
<rect x="896" y="768" width="64" height="128" fill="#FFAA6E" />
<rect x="960" y="768" width="64" height="128" fill="#000000" />
<rect x="1024" y="768" width="64" height="128" fill="#FFAA6E" />
<rect x="1088" y="768" width="64" height="64" fill="#FFE091" />
<rect x="1152" y="768" width="64" height="128" fill="#000000" />
<rect x="192" y="832" width="64" height="64" fill="#FFAA6E" />
<rect x="384" y="832" width="128" height="64" fill="#FFAA6E" />
<rect x="768" y="832" width="128" height="64" fill="#FFAA6E" />
<rect x="1088" y="832" width="64" height="64" fill="#FFAA6E" />
<rect x="128" y="896" width="128" height="64" fill="#000000" />
<rect x="320" y="896" width="128" height="64" fill="#000000" />
<rect x="448" y="896" width="384" height="64" fill="#FFAA6E" />
<rect x="832" y="896" width="128" height="64" fill="#000000" />
<rect x="1024" y="896" width="128" height="64" fill="#000000" />
<rect x="448" y="960" width="384" height="64" fill="#000000" />
</svg>